<?xml version="1.0" encoding="utf-8"?>
<!-- Generator: Adobe Illustrator 25.4.1, SVG Export Plug-In . SVG Version: 6.00 Build 0)  -->
<svg version="1.1" id="Layer_1" xmlns="http://www.w3.org/2000/svg" xmlns:xlink="http://www.w3.org/1999/xlink" x="0px" y="0px"
	 viewBox="0 0 751 294" style="enable-background:new 0 0 751 294;" xml:space="preserve">
<style type="text/css">
	.st0{clip-path:url(#SVGID_00000044884339234998824030000018364192642146608300_);}
	.st1{fill:#273467;}
	.st2{fill:#384275;}
	.st3{fill:#5F95CC;}
	.st4{fill:#5B628D;}
	.st5{fill:none;stroke:#71C5CE;stroke-width:6;stroke-linecap:round;stroke-linejoin:round;stroke-miterlimit:10;}
	.st6{fill:#FBC12F;}
</style>
<g>
	<defs>
		<rect id="SVGID_1_" width="751" height="294"/>
	</defs>
	<clipPath id="SVGID_00000075141198711350855800000012463394511285399712_">
		<use xlink:href="#SVGID_1_"  style="overflow:visible;"/>
	</clipPath>
	<g style="clip-path:url(#SVGID_00000075141198711350855800000012463394511285399712_);">
		<rect y="-4.89" class="st1" width="751" height="298.89"/>
		<circle class="st2" cx="15.26" cy="159.96" r="33.56"/>
		<path class="st2" d="M135.44,348.48l-88.46-88.46c-2.41-2.41-2.41-6.35,0-8.75l0,0c2.41-2.41,6.35-2.41,8.75,0l88.46,88.46
			c2.41,2.41,2.41,6.35,0,8.75l0,0C141.78,350.88,137.85,350.88,135.44,348.48z"/>
		<path class="st3" d="M197.24,142.64l-31.47,11.53c-1.61,0.59-3.41-0.25-4-1.85l0,0c-0.59-1.61,0.25-3.41,1.85-4l31.47-11.53
			c1.61-0.59,3.41,0.25,4,1.85l0,0C199.68,140.25,198.85,142.05,197.24,142.64z"/>
		<path class="st4" d="M489.2,71.8l-31.6-11.17c-1.62-0.57-2.47-2.36-1.9-3.98v0c0.57-1.62,2.36-2.47,3.98-1.9l31.6,11.17
			c1.62,0.57,2.47,2.36,1.9,3.98l0,0C492.61,71.52,490.82,72.37,489.2,71.8z"/>
		<path class="st5" d="M527.82,161.99c0,0-1.02-12.42,8.47-17.3c5.42-2.79,12.1-2.1,16.87,1.69c1.75,1.39,3.51,3.32,4.96,5.99"/>
		<path class="st2" d="M755.55,161.99c-48.42,0-87.68,39.26-87.68,87.68s39.26,87.68,87.68,87.68s87.68-39.26,87.68-87.68
			S803.97,161.99,755.55,161.99z M755.55,308.87c-32.69,0-59.2-26.5-59.2-59.2c0-32.69,26.5-59.2,59.2-59.2
			c32.69,0,59.2,26.5,59.2,59.2C814.75,282.36,788.24,308.87,755.55,308.87z"/>
		<circle class="st6" cx="255.94" cy="47.01" r="8.22"/>
	</g>
</g>
</svg>
