<?xml version="1.0" encoding="utf-8"?>
<!-- Generator: Adobe Illustrator 25.4.1, SVG Export Plug-In . SVG Version: 6.00 Build 0)  -->
<svg version="1.1" id="Layer_1" xmlns="http://www.w3.org/2000/svg" xmlns:xlink="http://www.w3.org/1999/xlink" x="0px" y="0px"
	 viewBox="0 0 178.1 49.7" style="enable-background:new 0 0 178.1 49.7;" xml:space="preserve">
<style type="text/css">
	.st0{fill:#FFFFFF;}
	.st1{fill:#E84814;}
</style>
<g>
	<path class="st0" d="M30.3,38.6C29.6,38.1,29,38,28.1,38c-0.8,0-1.7,0.2-2.5,0.3c-1,0.1-2,0.2-3,0.2c-8.7,0-16.3-4.9-16.3-14.3
		c0-8.6,6.8-12.8,14.7-12.8c2.6,0,3.6,0.3,5.4,0.5c0.5,0.1,1,0.2,1.5,0.2c0.7,0,1.5-0.3,1.9-0.9l2.3,10.4L31,21.8
		c-0.8-3.2-3.6-6.5-7.1-6.5c-4,0-7.2,3.6-7.2,8.7c0,4.8,3,10.2,8.3,10.2c3.5,0,6.5-2.2,8.1-5.2l1,0.5L30.3,38.6z"/>
	<path class="st0" d="M56.3,20.2c0-1.2,0.2-2.5-0.7-3.5c-1-1.1-2.6-1.4-4-1.4c-4.2,0-7.6,2.5-9.3,6.3l-1-0.1l1-9.4
		c0.5,0.5,0.9,0.9,1.7,0.9c0.7,0,1.4-0.2,2.1-0.3c3.3-0.7,6.2-1.4,9.6-1.4c2.5,0,5.9,0.3,7.8,1.9c2.6,1.9,2.5,5.2,2.5,8v9.5
		c0,2.4-0.3,5.4,2.9,5.8v1.3H58.2c-1-0.9-1.5-2.2-1.8-3.5c-1.9,2.8-6.4,4.2-9.6,4.2c-3.9,0-7.8-2.3-7.8-6.6
		c0-8.1,11.2-10.4,17.4-11.3V20.2z M51.9,25.1c-1.6,1-3.2,3-3.2,4.9c0,1.6,1,3.2,2.8,3.2c4.3,0,4.9-6.5,4.9-9.7
		C54.8,23.9,53.3,24.2,51.9,25.1z"/>
	<path class="st0" d="M84.6,32.3c0,2.8,1.4,4.2,3.1,4.2v1.3H72v-1.3c1.7,0,2.9-1.5,2.9-4.2V17.9c0-2.7-0.9-4.1-2.9-4.2v-1.3
		l11.1-0.7c1.2,1.7,1.4,3.8,1.6,5.8c1.3-3,4.9-5.9,8.2-5.9c0.9,0,1.8,0.2,2.6,0.4l-1.8,7.2c-1.1-1.1-2.2-1.5-3.8-1.5
		c-1.9,0-3.4,1.1-4.3,2.7c-1.1,1.9-0.8,3.7-0.8,5.7V32.3z"/>
	<path class="st0" d="M109,25.6c0.5,4.4,3,8.5,7.9,8.5c4.1,0,7.6-2.6,9.2-6.3l1.1,0.4l-3.2,10c-0.6-0.4-1-0.7-1.9-0.7
		c-1.4,0-4.4,0.8-7.6,0.8c-3.7,0-7.8-0.8-10.9-3.1c-3.4-2.5-5.4-6.4-5.4-10.7c0-8.8,7.5-13.4,15.6-13.4c6.9,0,12.8,3.2,14,10.5
		L109,25.6z M117.3,20.7v-0.9c0-2.4-1.7-4.4-4.1-4.4c-3.4,0-4.6,4.2-4.5,7.1L117.3,20.7z"/>
	<path class="st0" d="M149.6,20.2c0.1-1.2,0.2-2.5-0.7-3.5c-1.1-1.1-2.6-1.4-4-1.4c-4.2,0-7.6,2.5-9.3,6.3l-1.1-0.1l1.1-9.4
		c0.5,0.5,0.9,0.9,1.7,0.9c0.7,0,1.4-0.2,2.1-0.3c3.3-0.7,6.2-1.4,9.6-1.4c2.5,0,5.9,0.3,7.9,1.9c2.6,1.9,2.5,5.2,2.5,8v9.5
		c0,2.4-0.3,5.4,2.9,5.8v1.3h-10.9c-1-0.9-1.5-2.2-1.8-3.5c-1.9,2.8-6.4,4.2-9.6,4.2c-3.9,0-7.9-2.3-7.9-6.6
		c0-8.1,11.2-10.4,17.4-11.3V20.2z M145.1,25.1c-1.6,1-3.2,3-3.2,4.9c0,1.6,1.1,3.2,2.8,3.2c4.3,0,4.9-6.5,4.9-9.7
		C148,23.9,146.6,24.2,145.1,25.1z"/>
</g>
<circle class="st1" cx="167" cy="28.4" r="4.8"/>
</svg>
