<?xml version="1.0" encoding="utf-8"?>
<!-- Generator: Adobe Illustrator 25.4.1, SVG Export Plug-In . SVG Version: 6.00 Build 0)  -->
<svg version="1.1" id="Layer_1" xmlns="http://www.w3.org/2000/svg" xmlns:xlink="http://www.w3.org/1999/xlink" x="0px" y="0px"
	 viewBox="0 0 178.14 49.74" style="enable-background:new 0 0 178.14 49.74;" xml:space="preserve">
<style type="text/css">
	.st0{fill:#E84814;}
</style>
<g>
	<g>
		<path d="M30.34,38.63c-0.73-0.52-1.31-0.58-2.2-0.58c-0.84,0-1.67,0.16-2.51,0.26c-0.99,0.1-2.04,0.21-3.03,0.21
			c-8.68,0-16.32-4.86-16.32-14.33c0-8.58,6.75-12.82,14.7-12.82c2.56,0,3.61,0.26,5.44,0.47C26.88,11.9,27.41,12,27.88,12
			c0.73,0,1.52-0.26,1.88-0.89l2.35,10.41l-1.1,0.26c-0.78-3.19-3.56-6.49-7.06-6.49c-4.03,0-7.22,3.61-7.22,8.68
			c0,4.76,2.98,10.2,8.26,10.2c3.45,0,6.54-2.2,8.06-5.23l0.99,0.47L30.34,38.63z"/>
		<path d="M56.33,20.21c0.05-1.25,0.16-2.51-0.73-3.5c-1.05-1.1-2.56-1.36-3.98-1.36c-4.24,0-7.64,2.51-9.26,6.33l-1.05-0.1
			l1.05-9.36c0.52,0.52,0.94,0.89,1.73,0.89c0.68,0,1.41-0.16,2.09-0.31c3.3-0.73,6.17-1.41,9.62-1.41c2.46,0,5.86,0.31,7.85,1.88
			c2.56,1.93,2.51,5.18,2.51,8v9.52c0,2.41-0.31,5.44,2.88,5.75v1.31H58.16c-0.99-0.94-1.52-2.2-1.83-3.5
			c-1.88,2.77-6.38,4.18-9.57,4.18c-3.92,0-7.85-2.3-7.85-6.59c0-8.11,11.19-10.36,17.42-11.3V20.21z M51.88,25.13
			c-1.57,0.99-3.19,2.98-3.19,4.92c0,1.62,1.05,3.24,2.82,3.24c4.34,0,4.92-6.49,4.86-9.68C54.76,23.88,53.29,24.19,51.88,25.13z"/>
		<path d="M84.62,32.35c0,2.82,1.36,4.18,3.09,4.18v1.31H71.96v-1.31c1.73,0,2.88-1.46,2.88-4.24V17.86c0-2.72-0.94-4.08-2.88-4.18
			v-1.31l11.09-0.73c1.2,1.73,1.41,3.82,1.57,5.81c1.26-2.98,4.86-5.86,8.16-5.86c0.89,0,1.78,0.16,2.62,0.37l-1.83,7.17
			c-1.1-1.1-2.25-1.52-3.82-1.52c-1.94,0-3.4,1.1-4.29,2.72c-1.05,1.88-0.84,3.66-0.84,5.7V32.35z"/>
		<path d="M108.99,25.65c0.52,4.45,3.03,8.53,7.95,8.53c4.13,0,7.58-2.56,9.15-6.28l1.1,0.42l-3.24,10.04
			c-0.58-0.37-0.99-0.68-1.88-0.68c-1.41,0-4.45,0.84-7.58,0.84c-3.66,0-7.85-0.84-10.88-3.09c-3.45-2.51-5.39-6.38-5.39-10.67
			c0-8.84,7.48-13.39,15.64-13.39c6.9,0,12.76,3.24,13.97,10.46L108.99,25.65z M117.31,20.74v-0.89c0-2.35-1.67-4.45-4.13-4.45
			c-3.45,0-4.6,4.24-4.5,7.06L117.31,20.74z"/>
		<path d="M149.58,20.21c0.05-1.25,0.16-2.51-0.73-3.5c-1.05-1.1-2.56-1.36-3.98-1.36c-4.24,0-7.64,2.51-9.26,6.33l-1.05-0.1
			l1.05-9.36c0.52,0.52,0.94,0.89,1.73,0.89c0.68,0,1.41-0.16,2.09-0.31c3.29-0.73,6.17-1.41,9.62-1.41c2.46,0,5.86,0.31,7.85,1.88
			c2.56,1.93,2.51,5.18,2.51,8v9.52c0,2.41-0.31,5.44,2.88,5.75v1.31h-10.88c-0.99-0.94-1.52-2.2-1.83-3.5
			c-1.88,2.77-6.38,4.18-9.57,4.18c-3.92,0-7.85-2.3-7.85-6.59c0-8.11,11.19-10.36,17.42-11.3V20.21z M145.13,25.13
			c-1.57,0.99-3.19,2.98-3.19,4.92c0,1.62,1.05,3.24,2.82,3.24c4.34,0,4.92-6.49,4.86-9.68C148.01,23.88,146.55,24.19,145.13,25.13z
			"/>
	</g>
	<circle class="st0" cx="167.04" cy="28.45" r="4.82"/>
</g>
</svg>
